# xmcd
#
# Track frame offsets:
#	150
#	18994
#	38722
#	67778
#	83614
#	106376
#	122645
#	138619
#	156572
#	175788
#	192507
#	208070
#	234024
#	255750
#	271669
#	293681
#	321212
#
# Disc length: 4642 seconds
#
# Revision: 0
# Processed by: cddbd v1.4PL0 Copyright (c) Steve Scherf et al.
# Submitted via: EasyCDDAExtractor 5.0.4.1
#
DISCID=de122011
DTITLE=Aroldo - Rafael Made By Ouro Fino - Orion Popica
DYEAR=1900
DGENRE=
TTITLE0=Ls Jack-Carla
TTITLE1=Eminem-without me
TTITLE2=Jorge Vercilo-Que nem maré
TTITLE3=The Calling-Wherever you will go
TTITLE4=Capital Inicial-Á sua maneira
TTITLE5=Red Hot Chilli Peppers-By the way 
TTITLE6=Rouge -Ragatanga
TTITLE7=Shaggy-Angel
TTITLE8=Kelly Key-Cachorrinho
TTITLE9=Nickelback-How you remind me
TTITLE10=Sujeito Homi-Caranguejo
TTITLE11=Pearl Jeam-Black
TTITLE12=Planta Raiz-Com Certeza
TTITLE13=Pink-Don't let me get me
TTITLE14=Charlie Brown Jr.-Não é sério
TTITLE15=Queen-We Will rock you(DJ Mc Jack)
TTITLE16=Roberto Carlos-Calhanbeque(DJ Marky)
EXTD=
EXTT0=
EXTT1=
EXTT2=
EXTT3=
EXTT4=
EXTT5=
EXTT6=
EXTT7=
EXTT8=
EXTT9=
EXTT10=
EXTT11=
EXTT12=
EXTT13=
EXTT14=
EXTT15=
EXTT16=
PLAYORDER=
